<svg xmlns="http://www.w3.org/2000/svg" xmlns:xlink="http://www.w3.org/1999/xlink" fill="none" version="1.1" width="24" height="24" viewBox="0 0 24 24"><g style="mix-blend-mode:passthrough"><g style="opacity:0;mix-blend-mode:passthrough"><rect x="0" y="0" width="24" height="24" rx="0" fill="#000000" fill-opacity="1"/></g><g style="mix-blend-mode:passthrough"><path d="M20.15616730194092,10.803821263351441C20.128067301940916,11.04940126335144,20.128067301940916,11.316021263351441,20.15616730194092,11.58961126335144L20.15616730194092,13.65928126335144C20.15616730194092,17.42688126335144,17.574267301940917,20.61218126335144,14.101267301940918,21.53828126335144L14.101267301940918,20.296481263351442C14.101267301940918,19.131781263351442,13.161167301940917,18.19168126335144,12.003517301940917,18.19168126335144L11.996487301940919,18.19168126335144C10.838817301940917,18.19168126335144,9.891677301940918,19.131781263351442,9.891677301940918,20.296481263351442L9.891677301940918,21.53828126335144C6.418737301940919,20.60518126335144,3.843867301940918,17.41978126335144,3.843867301940918,13.65928126335144L3.843867301940918,10.10925126335144C4.777008301940918,10.866981263351441,6.025847301940917,12.24914126335144,5.948667301940918,14.15748126335144C6.727427301940918,10.565321263351441,8.270977301940917,10.02506126335144,9.575957301940917,8.54470126335144C11.273857301940918,6.615301263351441,11.77898730194092,4.496441263351441,10.803747301940918,2.4617812633514404C15.027467301940918,3.92812126335144,16.121867301940917,9.597091263351441,15.771067301940917,12.578881263351441C17.293567301940918,9.87771126335144,19.208967301940916,9.155081263351441,20.15616730194092,8.96564126335144L20.15616730194092,10.803821263351441Z" fill="#FF7B15" fill-opacity="1"/></g></g></svg>